HIERARCHY
ROOT hip
{
	OFFSET 0.000000 0.000000 0.000000
	CHANNELS 6 Xposition Yposition Zposition Zrotation Yrotation Xrotation 
	JOINT lhipjoint
	{
		OFFSET 0.000000 0.000000 0.000000
		CHANNELS 3 Zrotation Yrotation Xrotation
		JOINT lfemur
		{
			OFFSET 1.363060 -1.794630 0.839290
			CHANNELS 3 Zrotation Yrotation Xrotation
			JOINT ltibia
			{
				OFFSET 2.448110 -6.726130 0.000000
				CHANNELS 3 Zrotation Yrotation Xrotation
				JOINT lfoot
				{
					OFFSET 2.562200 -7.039590 0.000000
					CHANNELS 3 Zrotation Yrotation Xrotation
					JOINT ltoes
					{
						OFFSET 0.157640 -0.433110 2.322550
						CHANNELS 3 Zrotation Yrotation Xrotation
						End Site
						{
							OFFSET 0.000000 0.000000 0.000000
						}
					}
				}
			}
		}
	}
	JOINT rhipjoint
	{
		OFFSET 0.000000 0.000000 0.000000
		CHANNELS 3 Zrotation Yrotation Xrotation
		JOINT rfemur
		{
			OFFSET -1.305520 -1.794630 0.839290
			CHANNELS 3 Zrotation Yrotation Xrotation
			JOINT rtibia
			{
				OFFSET -2.542530 -6.985550 0.000000
				CHANNELS 3 Zrotation Yrotation Xrotation
				JOINT rfoot
				{
					OFFSET -2.568260 -7.056230 0.000000
					CHANNELS 3 Zrotation Yrotation Xrotation
					JOINT rtoes
					{
						OFFSET -0.164730 -0.452590 2.363150
						CHANNELS 3 Zrotation Yrotation Xrotation
						End Site
						{
							OFFSET 0.000000 0.000000 0.000000
						}
					}
				}
			}
		}
	}
	JOINT lowerback
	{
		OFFSET 0.000000 0.000000 0.000000
		CHANNELS 3 Zrotation Yrotation Xrotation
		JOINT upperback
		{
			OFFSET 0.028270 2.035590 -0.193380
			CHANNELS 3 Zrotation Yrotation Xrotation
			JOINT thorax
			{
				OFFSET 0.056720 2.048850 -0.042750
				CHANNELS 3 Zrotation Yrotation Xrotation
				JOINT lowerneck
				{
					OFFSET 0.000000 0.000000 0.000000
					CHANNELS 3 Zrotation Yrotation Xrotation
					JOINT upperneck
					{
						OFFSET -0.054170 1.746240 0.172020
						CHANNELS 3 Zrotation Yrotation Xrotation
						JOINT head
						{
							OFFSET 0.104070 1.761360 -0.123970
							CHANNELS 3 Zrotation Yrotation Xrotation
							End Site
							{
								OFFSET 0.000000 0.000000 0.000000
							}
						}
					}
				}
				JOINT lclavicle
				{
					OFFSET 0.000000 0.000000 0.000000
					CHANNELS 3 Zrotation Yrotation Xrotation
					JOINT lhumerus
					{
						OFFSET 3.362410 1.200890 -0.311210
						CHANNELS 3 Zrotation Yrotation Xrotation
						JOINT lradius
						{
							OFFSET 4.983000 -0.000000 -0.000000
							CHANNELS 3 Zrotation Yrotation Xrotation
							JOINT lwrist
							{
								OFFSET 3.483560 -0.000000 -0.000000
								CHANNELS 3 Zrotation Yrotation Xrotation
								JOINT lhand
								{
									OFFSET 0.000000 0.000000 0.000000
									CHANNELS 3 Zrotation Yrotation Xrotation
									JOINT lfingers
									{
										OFFSET 0.715260 -0.000000 -0.000000
										CHANNELS 3 Zrotation Yrotation Xrotation
										End Site
										{
											OFFSET 0.000000 0.000000 0.000000
										}
									}
								}
								JOINT lthumb
								{
									OFFSET 0.000000 0.000000 0.000000
									CHANNELS 3 Zrotation Yrotation Xrotation
									End Site
									{
										OFFSET 0.000000 0.000000 0.000000
									}
								}
							}
						}
					}
				}
				JOINT rclavicle
				{
					OFFSET 0.000000 0.000000 0.000000
					CHANNELS 3 Zrotation Yrotation Xrotation
					JOINT rhumerus
					{
						OFFSET -3.136600 1.374050 -0.404650
						CHANNELS 3 Zrotation Yrotation Xrotation
						JOINT rradius
						{
							OFFSET -5.241900 -0.000000 -0.000000
							CHANNELS 3 Zrotation Yrotation Xrotation
							JOINT rwrist
							{
								OFFSET -3.444170 -0.000000 -0.000000
								CHANNELS 3 Zrotation Yrotation Xrotation
								JOINT rhand
								{
									OFFSET 0.000000 0.000000 0.000000
									CHANNELS 3 Zrotation Yrotation Xrotation
									JOINT rfingers
									{
										OFFSET -0.622530 -0.000000 -0.000000
										CHANNELS 3 Zrotation Yrotation Xrotation
										End Site
										{
											OFFSET 0.000000 0.000000 0.000000
										}
									}
								}
								JOINT rthumb
								{
									OFFSET 0.000000 0.000000 0.000000
									CHANNELS 3 Zrotation Yrotation Xrotation
									End Site
									{
										OFFSET 0.000000 0.000000 0.000000
									}
								}
							}
						}
					}
				}
			}
		}
	}
}
MOTION
Frames: 10
Frame Time: 0.008333
-16.489815 16.501371 -4.024926 19.140466 -33.733825 12.728117 -7.768222 -1.496727 -3.555351 -1.566731 -33.549936 -42.445075 6.528578 11.028504 41.488673 -1.015644 -22.773404 8.567719 0.002300 -0.310000 -0.851800 8.626124 -0.576864 1.266217 -12.466703 3.690789 -62.641889 -9.692816 -13.445950 55.858823 -0.219383 19.485975 2.630798 -0.028700 -1.093900 3.007300 7.092641 0.661165 42.911631 0.542071 0.649098 2.082175 -10.037197 2.163446 11.954874 -0.356882 -12.174311 1.447133 8.841567 -17.277372 -9.020621 2.744700 -8.987800 -6.860300 -6.910090 -4.048264 5.117399 -72.429882 -10.215759 33.313634 23.192266 -35.335999 -7.573386 0.167139 1.576483 8.230442 23.833134 -11.677312 -5.866600 -7.125000 0.000000 0.000000 -2.366800 15.382600 1.655600 11.612204 3.491899 1.234353 4.358188 36.313085 -39.916177 -11.294967 30.775792 -4.160407 0.350075 0.267351 -1.638826 -19.174181 12.812803 -4.395400 7.125000 0.000000 0.000000 5.352500 -16.765100 3.596900 
-16.513016 16.520541 -4.030211 18.976216 -33.455097 12.582430 -7.727169 -1.492553 -3.547992 -1.733216 -33.415995 -41.885516 6.439446 10.980710 41.110168 -1.038135 -22.866109 8.777442 0.004100 -0.414800 -1.139700 8.579878 -0.575894 1.267274 -12.167249 3.676699 -62.063432 -9.629767 -13.442916 55.596555 -0.217709 19.323280 2.365978 -0.024500 -1.010400 2.777500 7.071502 0.644128 42.755604 0.524376 0.624734 2.052261 -10.076614 2.145648 11.888077 -0.210074 -12.096577 1.582749 8.685218 -17.154570 -8.957641 2.671900 -8.924000 -6.906200 -6.903147 -4.020502 5.112374 -72.356544 -10.100621 33.300597 23.311992 -35.438285 -7.644617 0.138509 1.588480 7.962523 24.269519 -11.432724 -5.891800 -7.125000 0.000000 0.000000 -2.037100 15.582100 1.415900 11.580878 3.461215 1.256864 5.932703 36.310139 -38.126515 -11.922309 31.314932 -4.382714 0.308813 0.196170 -2.096153 -19.488736 12.919211 -4.526200 7.125000 0.000000 0.000000 5.168500 -16.546600 3.496900 
-16.535948 16.541502 -4.034958 18.770480 -33.170239 12.446575 -7.683939 -1.489117 -3.539580 -1.876493 -33.279960 -41.319073 6.347683 10.930307 40.719282 -1.052774 -22.893584 9.030639 0.005200 -0.467300 -1.284100 8.528256 -0.574026 1.267369 -11.828417 3.655657 -61.466490 -9.564632 -13.439859 55.320189 -0.215900 19.158923 2.081922 -0.020000 -0.912700 2.508600 7.072612 0.638242 42.560151 0.511001 0.625339 2.023243 -10.105576 2.138723 11.831297 -0.064963 -12.022080 1.822818 8.548872 -17.036524 -8.953852 2.619900 -8.863300 -6.994900 -6.891758 -3.994279 5.109986 -72.306378 -9.961878 33.276190 23.407275 -35.525612 -7.707340 0.116299 1.600172 7.731846 24.724876 -11.304330 -5.969900 -7.125000 0.000000 0.000000 -1.704600 15.652300 1.182000 11.550576 3.424813 1.288148 7.556906 36.236590 -36.239634 -12.607890 31.887117 -4.629913 0.266747 0.120834 -2.614597 -19.795921 12.926974 -4.623500 7.125000 0.000000 0.000000 4.988900 -16.426900 3.387400 
-16.559328 16.563180 -4.038810 18.561339 -32.910160 12.299985 -7.634892 -1.483990 -3.529735 -2.030059 -33.128119 -40.707155 6.251987 10.879687 40.311026 -1.072057 -22.960176 9.213974 0.006100 -0.503900 -1.384600 8.467058 -0.571909 1.264635 -11.475076 3.679133 -60.825041 -9.495008 -13.430947 55.016718 -0.215862 18.964280 1.762769 -0.012500 -0.722300 1.985100 7.046454 0.660469 42.352852 0.499835 0.659856 1.992877 -10.104696 2.137841 11.777052 0.082816 -11.956321 2.036534 8.378941 -16.929058 -8.877939 2.548900 -8.803900 -7.057800 -6.874107 -3.966826 5.105226 -72.273790 -9.793530 33.279266 23.479704 -35.599698 -7.762049 0.097294 1.613178 7.534209 25.250052 -11.244928 -6.098100 -7.125000 0.000000 0.000000 -1.329700 15.635600 0.922400 11.520916 3.388609 1.323873 9.164123 36.121647 -34.346868 -13.266169 32.410711 -4.865301 0.227101 0.044176 -3.206129 -20.027679 12.985184 -4.721700 7.125000 0.000000 0.000000 4.862500 -16.258700 3.318800 
-16.582439 16.585126 -4.041766 18.321802 -32.628869 12.164780 -7.584175 -1.481593 -3.519156 -2.187377 -32.940864 -40.094213 6.153685 10.826883 39.888783 -1.089769 -23.011685 9.416126 0.008400 -0.590900 -1.623800 8.401592 -0.566112 1.259331 -11.087486 3.673935 -60.163594 -9.421211 -13.423098 54.694638 -0.212638 18.781471 1.474980 -0.010300 -0.656900 1.805100 7.046724 0.667686 42.117708 0.493308 0.685234 1.967464 -10.091360 2.135557 11.753708 0.160214 -11.870626 2.203553 8.241055 -16.801229 -8.766980 2.492000 -8.732500 -7.085600 -6.857159 -3.935350 5.099480 -72.282883 -9.640598 33.252552 23.513303 -35.641118 -7.799698 0.082061 1.626136 7.462647 25.810622 -11.210683 -6.248600 -7.125000 0.000000 0.000000 -0.932600 15.584900 0.647900 11.485139 3.344332 1.364496 10.767664 36.040310 -32.514398 -13.911317 32.909885 -5.096494 0.190166 -0.034772 -3.692491 -20.330351 12.955862 -4.808300 7.125000 0.000000 0.000000 4.684100 -16.174100 3.204800 
-16.605281 16.609312 -4.044902 18.059876 -32.359840 12.030385 -7.529055 -1.479171 -3.507585 -2.336410 -32.729192 -39.460024 6.052110 10.773117 39.451516 -1.110856 -23.088087 9.570230 0.013100 -0.738700 -2.030100 8.325812 -0.558331 1.249649 -10.661511 3.688543 -59.469741 -9.344090 -13.411327 54.348460 -0.209063 18.603540 1.162806 -0.005700 -0.487000 1.338100 7.036141 0.691268 41.856169 0.492659 0.734091 1.947996 -10.039334 2.138758 11.762691 0.191817 -11.752000 2.317981 8.132412 -16.634659 -8.601315 2.439400 -8.642300 -7.076200 -6.839804 -3.904579 5.094023 -72.301751 -9.498709 33.229146 23.532470 -35.673576 -7.829351 0.071009 1.637285 7.411797 26.312968 -11.225572 -6.405700 -7.125000 0.000000 0.000000 -0.581900 15.487800 0.405400 11.450643 3.293370 1.409140 12.301403 35.923367 -30.640414 -14.500430 33.345463 -5.300864 0.157123 -0.111917 -4.158604 -20.691383 12.889722 -4.897100 7.125000 0.000000 0.000000 4.462300 -16.124100 3.056900 
-16.628930 16.633319 -4.046066 17.785368 -32.087484 11.894986 -7.469650 -1.479083 -3.493938 -2.500989 -32.492378 -38.805898 5.946909 10.716340 38.994688 -1.128346 -23.133220 9.782339 0.012800 -0.731500 -2.010200 8.244334 -0.549734 1.238092 -10.238220 3.715987 -58.737240 -9.262054 -13.397797 53.980848 -0.204667 18.382614 0.893872 -0.004500 -0.431400 1.185500 7.047961 0.721196 41.581936 0.489385 0.796347 1.924457 -10.006830 2.152562 11.771062 0.214339 -11.648064 2.389954 8.015242 -16.485720 -8.351288 2.379500 -8.557400 -7.027000 -6.820698 -3.870065 5.083864 -72.340564 -9.346479 33.225787 23.518930 -35.674282 -7.837368 0.061973 1.645002 7.405286 26.706879 -11.214708 -6.518900 -7.125000 0.000000 0.000000 -0.304700 15.436800 0.212600 11.411467 3.242839 1.459806 13.851788 35.778108 -28.804271 -15.023050 33.693456 -5.475048 0.125660 -0.191315 -4.495527 -21.130982 12.837796 -5.013000 7.125000 0.000000 0.000000 4.186400 -16.048500 2.873700 
-16.651325 16.657147 -4.047499 17.521173 -31.811710 11.740651 -7.407646 -1.482682 -3.480867 -2.693982 -32.222971 -38.133116 5.838727 10.657580 38.520700 -1.140809 -23.141007 10.021006 0.011800 -0.701100 -1.926600 8.161113 -0.535271 1.223188 -9.797156 3.705104 -57.998951 -9.177650 -13.386172 53.603203 -0.198433 18.200313 0.601741 -0.002100 -0.295100 0.810900 7.065277 0.759233 41.284217 0.487501 0.869076 1.911045 -9.973191 2.174521 11.828276 0.251842 -11.549992 2.438668 7.894329 -16.342615 -8.130956 2.316500 -8.476700 -6.986500 -6.804293 -3.828073 5.071939 -72.355045 -9.228274 33.265542 23.489134 -35.660810 -7.832213 0.056844 1.648854 7.344857 26.961505 -11.257812 -6.616200 -7.125000 0.000000 0.000000 -0.131200 15.349000 0.091800 11.376539 3.187591 1.521055 15.379805 35.588847 -26.983507 -15.537861 34.023205 -5.646705 0.097023 -0.271579 -4.865813 -21.604599 12.736157 -5.120600 7.125000 0.000000 0.000000 3.884000 -16.020000 2.667500 
-16.673988 16.682677 -4.047768 17.254844 -31.554291 11.565286 -7.339554 -1.486859 -3.466461 -2.919448 -31.925645 -37.409957 5.723534 10.595079 38.012387 -1.150928 -23.134916 10.201880 0.011000 -0.678500 -1.864500 8.068305 -0.516407 1.202857 -9.361244 3.722632 -57.203199 -9.090522 -13.372955 53.211189 -0.192081 18.012342 0.290316 -0.000600 -0.156000 0.428500 7.043102 0.803212 40.989863 0.486733 0.941389 1.897982 -9.910665 2.188087 11.889312 0.260753 -11.432933 2.445898 7.770467 -16.178129 -7.872391 2.248400 -8.384200 -6.921500 -6.786411 -3.785514 5.057540 -72.392121 -9.103170 33.305611 23.434092 -35.624146 -7.812526 0.051279 1.651888 7.277648 27.167468 -11.269819 -6.684300 -7.125000 0.000000 0.000000 0.011300 15.303100 -0.007900 11.337420 3.128636 1.588548 16.883005 35.402465 -25.066581 -16.017799 34.317767 -5.799143 0.071125 -0.354493 -5.344795 -22.217582 12.625493 -5.263000 7.125000 0.000000 0.000000 3.484700 -15.982200 2.395000 
-16.695845 16.706594 -4.047768 16.998833 -31.280809 11.369959 -7.268266 -1.495163 -3.453180 -3.169380 -31.622456 -36.647159 5.604220 10.529075 37.480391 -1.150566 -23.054936 10.445745 0.005900 -0.496700 -1.364900 7.973921 -0.491623 1.179062 -8.931420 3.711595 -56.391934 -9.002011 -13.363189 52.817691 -0.185176 17.790574 0.015769 -0.000100 -0.075300 0.206900 7.034322 0.846035 40.699197 0.486880 1.016084 1.891262 -9.851625 2.206991 11.984110 0.259214 -11.327249 2.368635 7.645997 -16.028945 -7.594686 2.175400 -8.298700 -6.830400 -6.771184 -3.735822 5.038622 -72.415640 -9.015191 33.405659 23.359219 -35.568608 -7.778919 0.046749 1.653066 7.165064 27.302804 -11.294172 -6.736800 -7.125000 0.000000 0.000000 0.102800 15.255400 -0.072200 11.299860 3.068553 1.664346 18.350663 35.190841 -23.207571 -16.478618 34.588270 -5.945921 0.049227 -0.437374 -5.921401 -22.763059 12.481487 -5.375600 7.125000 0.000000 0.000000 3.128800 -15.985400 2.149400 
